<mxfile host="app.diagrams.net" modified="2023-10-05T18:00:22.880Z" agent="Mozilla/5.0 (Windows NT 10.0; Win64; x64) AppleWebKit/537.36 (KHTML, like Gecko) Chrome/117.0.0.0 Safari/537.36" etag="HRLQn-H6IOgloJFKR2ku" version="22.0.2" type="device">
  <diagram name="Page-1" id="lDSLANmzjrtu2QTE7FcU">
    <mxGraphModel dx="1050" dy="1703" grid="1" gridSize="10" guides="1" tooltips="1" connect="1" arrows="1" fold="1" page="1" pageScale="1" pageWidth="827" pageHeight="1169" math="0" shadow="0">
      <root>
        <mxCell id="0" />
        <mxCell id="1" parent="0" />
        <object label="Užívateľ" User="" id="IoMN5XkX6HUeP3w48aP1-1">
          <mxCell style="shape=umlActor;verticalLabelPosition=bottom;verticalAlign=top;html=1;outlineConnect=0;" vertex="1" parent="1">
            <mxGeometry x="140" y="110" width="30" height="60" as="geometry" />
          </mxCell>
        </object>
        <mxCell id="IoMN5XkX6HUeP3w48aP1-3" value="" style="swimlane;startSize=0;" vertex="1" parent="1">
          <mxGeometry x="310" y="-10" width="400" height="570" as="geometry" />
        </mxCell>
        <mxCell id="IoMN5XkX6HUeP3w48aP1-4" value="Autentifikácia" style="ellipse;whiteSpace=wrap;html=1;" vertex="1" parent="IoMN5XkX6HUeP3w48aP1-3">
          <mxGeometry x="24" y="90" width="80" height="50" as="geometry" />
        </mxCell>
        <mxCell id="IoMN5XkX6HUeP3w48aP1-10" value="Nesprávne meno alebo heslo" style="ellipse;whiteSpace=wrap;html=1;" vertex="1" parent="IoMN5XkX6HUeP3w48aP1-3">
          <mxGeometry x="190" y="100" width="100" height="70" as="geometry" />
        </mxCell>
        <mxCell id="IoMN5XkX6HUeP3w48aP1-13" value="" style="endArrow=classic;html=1;rounded=0;exitX=0;exitY=0.5;exitDx=0;exitDy=0;entryX=1;entryY=0.5;entryDx=0;entryDy=0;" edge="1" parent="IoMN5XkX6HUeP3w48aP1-3" source="IoMN5XkX6HUeP3w48aP1-10" target="IoMN5XkX6HUeP3w48aP1-4">
          <mxGeometry width="50" height="50" relative="1" as="geometry">
            <mxPoint x="-10" y="210" as="sourcePoint" />
            <mxPoint x="40" y="160" as="targetPoint" />
          </mxGeometry>
        </mxCell>
        <mxCell id="IoMN5XkX6HUeP3w48aP1-14" value="&lt;sub&gt;&amp;lt;&amp;lt;exclude&amp;gt;&amp;gt;&lt;/sub&gt;" style="edgeLabel;html=1;align=center;verticalAlign=middle;resizable=0;points=[];" vertex="1" connectable="0" parent="IoMN5XkX6HUeP3w48aP1-13">
          <mxGeometry x="-0.0667" y="-3" relative="1" as="geometry">
            <mxPoint as="offset" />
          </mxGeometry>
        </mxCell>
        <mxCell id="IoMN5XkX6HUeP3w48aP1-15" value="Registrácia" style="ellipse;whiteSpace=wrap;html=1;" vertex="1" parent="IoMN5XkX6HUeP3w48aP1-3">
          <mxGeometry x="24" y="20" width="80" height="50" as="geometry" />
        </mxCell>
        <mxCell id="IoMN5XkX6HUeP3w48aP1-17" value="Vyplnenie reg. formuláru" style="ellipse;whiteSpace=wrap;html=1;" vertex="1" parent="IoMN5XkX6HUeP3w48aP1-3">
          <mxGeometry x="240" width="90" height="70" as="geometry" />
        </mxCell>
        <mxCell id="IoMN5XkX6HUeP3w48aP1-18" value="" style="endArrow=classic;html=1;rounded=0;exitX=1;exitY=0.5;exitDx=0;exitDy=0;entryX=0;entryY=0.5;entryDx=0;entryDy=0;" edge="1" parent="IoMN5XkX6HUeP3w48aP1-3" source="IoMN5XkX6HUeP3w48aP1-15" target="IoMN5XkX6HUeP3w48aP1-17">
          <mxGeometry width="50" height="50" relative="1" as="geometry">
            <mxPoint x="-10" y="220" as="sourcePoint" />
            <mxPoint x="40" y="170" as="targetPoint" />
          </mxGeometry>
        </mxCell>
        <mxCell id="IoMN5XkX6HUeP3w48aP1-19" value="&amp;lt;&amp;lt;includes&amp;gt;&amp;gt;" style="edgeLabel;html=1;align=center;verticalAlign=middle;resizable=0;points=[];" vertex="1" connectable="0" parent="IoMN5XkX6HUeP3w48aP1-18">
          <mxGeometry x="-0.0682" y="3" relative="1" as="geometry">
            <mxPoint as="offset" />
          </mxGeometry>
        </mxCell>
        <mxCell id="IoMN5XkX6HUeP3w48aP1-20" value="Pridelenie ID v systéme" style="ellipse;whiteSpace=wrap;html=1;" vertex="1" parent="IoMN5XkX6HUeP3w48aP1-3">
          <mxGeometry x="295" y="70" width="90" height="60" as="geometry" />
        </mxCell>
        <mxCell id="IoMN5XkX6HUeP3w48aP1-21" value="" style="endArrow=classic;html=1;rounded=0;exitX=1;exitY=0.5;exitDx=0;exitDy=0;entryX=0;entryY=0.5;entryDx=0;entryDy=0;" edge="1" parent="IoMN5XkX6HUeP3w48aP1-3" source="IoMN5XkX6HUeP3w48aP1-15" target="IoMN5XkX6HUeP3w48aP1-20">
          <mxGeometry width="50" height="50" relative="1" as="geometry">
            <mxPoint x="-10" y="220" as="sourcePoint" />
            <mxPoint x="40" y="170" as="targetPoint" />
          </mxGeometry>
        </mxCell>
        <mxCell id="IoMN5XkX6HUeP3w48aP1-22" value="&amp;lt;&amp;lt;includes&amp;gt;&amp;gt;" style="edgeLabel;html=1;align=center;verticalAlign=middle;resizable=0;points=[];" vertex="1" connectable="0" parent="IoMN5XkX6HUeP3w48aP1-21">
          <mxGeometry x="0.1602" y="2" relative="1" as="geometry">
            <mxPoint as="offset" />
          </mxGeometry>
        </mxCell>
        <mxCell id="IoMN5XkX6HUeP3w48aP1-23" value="Prihlásenie" style="ellipse;whiteSpace=wrap;html=1;" vertex="1" parent="IoMN5XkX6HUeP3w48aP1-3">
          <mxGeometry x="24" y="150" width="80" height="50" as="geometry" />
        </mxCell>
        <mxCell id="IoMN5XkX6HUeP3w48aP1-25" value="Overenie účtu" style="ellipse;whiteSpace=wrap;html=1;" vertex="1" parent="IoMN5XkX6HUeP3w48aP1-3">
          <mxGeometry x="140" y="210" width="100" height="60" as="geometry" />
        </mxCell>
        <mxCell id="IoMN5XkX6HUeP3w48aP1-26" value="" style="endArrow=classic;html=1;rounded=0;entryX=0;entryY=0.5;entryDx=0;entryDy=0;exitX=1;exitY=0.5;exitDx=0;exitDy=0;" edge="1" parent="IoMN5XkX6HUeP3w48aP1-3" source="IoMN5XkX6HUeP3w48aP1-23" target="IoMN5XkX6HUeP3w48aP1-25">
          <mxGeometry width="50" height="50" relative="1" as="geometry">
            <mxPoint x="-10" y="220" as="sourcePoint" />
            <mxPoint x="40" y="170" as="targetPoint" />
          </mxGeometry>
        </mxCell>
        <mxCell id="IoMN5XkX6HUeP3w48aP1-27" value="&amp;lt;&amp;lt;includes&amp;gt;&amp;gt;" style="edgeLabel;html=1;align=center;verticalAlign=middle;resizable=0;points=[];" vertex="1" connectable="0" parent="IoMN5XkX6HUeP3w48aP1-26">
          <mxGeometry x="-0.0431" y="1" relative="1" as="geometry">
            <mxPoint as="offset" />
          </mxGeometry>
        </mxCell>
        <mxCell id="IoMN5XkX6HUeP3w48aP1-30" value="Požičanie knihy" style="ellipse;whiteSpace=wrap;html=1;" vertex="1" parent="IoMN5XkX6HUeP3w48aP1-3">
          <mxGeometry x="14" y="220" width="100" height="60" as="geometry" />
        </mxCell>
        <mxCell id="IoMN5XkX6HUeP3w48aP1-32" value="Vrátenie knihy" style="ellipse;whiteSpace=wrap;html=1;" vertex="1" parent="IoMN5XkX6HUeP3w48aP1-3">
          <mxGeometry x="19" y="320" width="90" height="60" as="geometry" />
        </mxCell>
        <mxCell id="IoMN5XkX6HUeP3w48aP1-34" value="Ohodnotenie knihy" style="ellipse;whiteSpace=wrap;html=1;" vertex="1" parent="IoMN5XkX6HUeP3w48aP1-3">
          <mxGeometry x="155" y="280" width="90" height="50" as="geometry" />
        </mxCell>
        <mxCell id="IoMN5XkX6HUeP3w48aP1-36" value="" style="endArrow=classic;html=1;rounded=0;exitX=0;exitY=0.5;exitDx=0;exitDy=0;entryX=1;entryY=0.5;entryDx=0;entryDy=0;" edge="1" parent="IoMN5XkX6HUeP3w48aP1-3" source="IoMN5XkX6HUeP3w48aP1-34" target="IoMN5XkX6HUeP3w48aP1-32">
          <mxGeometry width="50" height="50" relative="1" as="geometry">
            <mxPoint x="-50" y="230" as="sourcePoint" />
            <mxPoint y="180" as="targetPoint" />
          </mxGeometry>
        </mxCell>
        <mxCell id="IoMN5XkX6HUeP3w48aP1-37" value="&amp;lt;&amp;lt;extend&amp;gt;&amp;gt;" style="edgeLabel;html=1;align=center;verticalAlign=middle;resizable=0;points=[];" vertex="1" connectable="0" parent="IoMN5XkX6HUeP3w48aP1-36">
          <mxGeometry x="0.0372" y="-1" relative="1" as="geometry">
            <mxPoint as="offset" />
          </mxGeometry>
        </mxCell>
        <mxCell id="IoMN5XkX6HUeP3w48aP1-38" value="" style="endArrow=classic;html=1;rounded=0;exitX=0.5;exitY=0;exitDx=0;exitDy=0;entryX=0.5;entryY=1;entryDx=0;entryDy=0;" edge="1" parent="IoMN5XkX6HUeP3w48aP1-3" source="IoMN5XkX6HUeP3w48aP1-32" target="IoMN5XkX6HUeP3w48aP1-30">
          <mxGeometry width="50" height="50" relative="1" as="geometry">
            <mxPoint x="-50" y="230" as="sourcePoint" />
            <mxPoint y="180" as="targetPoint" />
          </mxGeometry>
        </mxCell>
        <mxCell id="IoMN5XkX6HUeP3w48aP1-39" value="&amp;lt;&amp;lt;extend&amp;gt;&amp;gt;" style="edgeLabel;html=1;align=center;verticalAlign=middle;resizable=0;points=[];" vertex="1" connectable="0" parent="IoMN5XkX6HUeP3w48aP1-38">
          <mxGeometry x="0.14" y="1" relative="1" as="geometry">
            <mxPoint as="offset" />
          </mxGeometry>
        </mxCell>
        <mxCell id="IoMN5XkX6HUeP3w48aP1-40" value="Vyplnenie hodnotenia" style="ellipse;whiteSpace=wrap;html=1;" vertex="1" parent="IoMN5XkX6HUeP3w48aP1-3">
          <mxGeometry x="310" y="240" width="80" height="60" as="geometry" />
        </mxCell>
        <mxCell id="IoMN5XkX6HUeP3w48aP1-41" value="" style="endArrow=classic;html=1;rounded=0;exitX=1;exitY=0.5;exitDx=0;exitDy=0;entryX=0;entryY=0.5;entryDx=0;entryDy=0;" edge="1" parent="IoMN5XkX6HUeP3w48aP1-3" source="IoMN5XkX6HUeP3w48aP1-34" target="IoMN5XkX6HUeP3w48aP1-40">
          <mxGeometry width="50" height="50" relative="1" as="geometry">
            <mxPoint x="-50" y="230" as="sourcePoint" />
            <mxPoint y="180" as="targetPoint" />
          </mxGeometry>
        </mxCell>
        <mxCell id="IoMN5XkX6HUeP3w48aP1-42" value="&amp;lt;&amp;lt;include&amp;gt;&amp;gt;" style="edgeLabel;html=1;align=center;verticalAlign=middle;resizable=0;points=[];" vertex="1" connectable="0" parent="IoMN5XkX6HUeP3w48aP1-41">
          <mxGeometry x="-0.0907" y="1" relative="1" as="geometry">
            <mxPoint as="offset" />
          </mxGeometry>
        </mxCell>
        <mxCell id="IoMN5XkX6HUeP3w48aP1-44" value="Zaradenie knihy do evidencie" style="ellipse;whiteSpace=wrap;html=1;" vertex="1" parent="IoMN5XkX6HUeP3w48aP1-3">
          <mxGeometry x="260" y="310" width="90" height="60" as="geometry" />
        </mxCell>
        <mxCell id="IoMN5XkX6HUeP3w48aP1-46" value="Úprava info. o knihe" style="ellipse;whiteSpace=wrap;html=1;" vertex="1" parent="IoMN5XkX6HUeP3w48aP1-3">
          <mxGeometry x="290" y="450" width="100" height="50" as="geometry" />
        </mxCell>
        <mxCell id="IoMN5XkX6HUeP3w48aP1-48" value="Vyradenie knihy z evidencie" style="ellipse;whiteSpace=wrap;html=1;" vertex="1" parent="IoMN5XkX6HUeP3w48aP1-3">
          <mxGeometry x="252.5" y="380" width="105" height="60" as="geometry" />
        </mxCell>
        <mxCell id="IoMN5XkX6HUeP3w48aP1-52" value="Vyhľadávanie a úprava dát&amp;nbsp; databáze" style="ellipse;whiteSpace=wrap;html=1;" vertex="1" parent="IoMN5XkX6HUeP3w48aP1-3">
          <mxGeometry x="44" y="440" width="120" height="80" as="geometry" />
        </mxCell>
        <mxCell id="IoMN5XkX6HUeP3w48aP1-53" value="" style="endArrow=classic;html=1;rounded=0;exitX=0;exitY=0.5;exitDx=0;exitDy=0;entryX=0.5;entryY=0;entryDx=0;entryDy=0;" edge="1" parent="IoMN5XkX6HUeP3w48aP1-3" source="IoMN5XkX6HUeP3w48aP1-44" target="IoMN5XkX6HUeP3w48aP1-52">
          <mxGeometry width="50" height="50" relative="1" as="geometry">
            <mxPoint x="170" y="310" as="sourcePoint" />
            <mxPoint x="220" y="260" as="targetPoint" />
          </mxGeometry>
        </mxCell>
        <mxCell id="IoMN5XkX6HUeP3w48aP1-54" value="&amp;lt;&amp;lt;extend&amp;gt;&amp;gt;" style="edgeLabel;html=1;align=center;verticalAlign=middle;resizable=0;points=[];" vertex="1" connectable="0" parent="IoMN5XkX6HUeP3w48aP1-53">
          <mxGeometry x="0.0044" y="-1" relative="1" as="geometry">
            <mxPoint as="offset" />
          </mxGeometry>
        </mxCell>
        <mxCell id="IoMN5XkX6HUeP3w48aP1-57" value="" style="endArrow=classic;html=1;rounded=0;exitX=0;exitY=0.5;exitDx=0;exitDy=0;entryX=1;entryY=0.5;entryDx=0;entryDy=0;" edge="1" parent="IoMN5XkX6HUeP3w48aP1-3" source="IoMN5XkX6HUeP3w48aP1-46" target="IoMN5XkX6HUeP3w48aP1-52">
          <mxGeometry width="50" height="50" relative="1" as="geometry">
            <mxPoint x="280" y="360" as="sourcePoint" />
            <mxPoint x="124" y="460" as="targetPoint" />
          </mxGeometry>
        </mxCell>
        <mxCell id="IoMN5XkX6HUeP3w48aP1-58" value="&amp;lt;&amp;lt;extend&amp;gt;&amp;gt;" style="edgeLabel;html=1;align=center;verticalAlign=middle;resizable=0;points=[];" vertex="1" connectable="0" parent="IoMN5XkX6HUeP3w48aP1-57">
          <mxGeometry x="0.0044" y="-1" relative="1" as="geometry">
            <mxPoint as="offset" />
          </mxGeometry>
        </mxCell>
        <mxCell id="IoMN5XkX6HUeP3w48aP1-55" value="" style="endArrow=classic;html=1;rounded=0;exitX=0;exitY=1;exitDx=0;exitDy=0;entryX=1;entryY=0;entryDx=0;entryDy=0;" edge="1" parent="IoMN5XkX6HUeP3w48aP1-3" source="IoMN5XkX6HUeP3w48aP1-48" target="IoMN5XkX6HUeP3w48aP1-52">
          <mxGeometry width="50" height="50" relative="1" as="geometry">
            <mxPoint x="270" y="350" as="sourcePoint" />
            <mxPoint x="114" y="450" as="targetPoint" />
          </mxGeometry>
        </mxCell>
        <mxCell id="IoMN5XkX6HUeP3w48aP1-56" value="&amp;lt;&amp;lt;extend&amp;gt;&amp;gt;" style="edgeLabel;html=1;align=center;verticalAlign=middle;resizable=0;points=[];" vertex="1" connectable="0" parent="IoMN5XkX6HUeP3w48aP1-55">
          <mxGeometry x="0.0044" y="-1" relative="1" as="geometry">
            <mxPoint as="offset" />
          </mxGeometry>
        </mxCell>
        <mxCell id="IoMN5XkX6HUeP3w48aP1-9" value="" style="endArrow=none;html=1;rounded=0;entryX=0;entryY=0.5;entryDx=0;entryDy=0;" edge="1" parent="1" target="IoMN5XkX6HUeP3w48aP1-4">
          <mxGeometry width="50" height="50" relative="1" as="geometry">
            <mxPoint x="170" y="140" as="sourcePoint" />
            <mxPoint x="350" y="180" as="targetPoint" />
          </mxGeometry>
        </mxCell>
        <mxCell id="IoMN5XkX6HUeP3w48aP1-16" value="" style="endArrow=none;html=1;rounded=0;entryX=0;entryY=0.5;entryDx=0;entryDy=0;" edge="1" parent="1" target="IoMN5XkX6HUeP3w48aP1-15">
          <mxGeometry width="50" height="50" relative="1" as="geometry">
            <mxPoint x="170" y="140" as="sourcePoint" />
            <mxPoint x="350" y="190" as="targetPoint" />
          </mxGeometry>
        </mxCell>
        <mxCell id="IoMN5XkX6HUeP3w48aP1-24" value="" style="endArrow=none;html=1;rounded=0;entryX=0;entryY=0.5;entryDx=0;entryDy=0;" edge="1" parent="1" target="IoMN5XkX6HUeP3w48aP1-23">
          <mxGeometry width="50" height="50" relative="1" as="geometry">
            <mxPoint x="170" y="140" as="sourcePoint" />
            <mxPoint x="350" y="190" as="targetPoint" />
          </mxGeometry>
        </mxCell>
        <mxCell id="IoMN5XkX6HUeP3w48aP1-31" value="" style="endArrow=none;html=1;rounded=0;entryX=0;entryY=0.5;entryDx=0;entryDy=0;" edge="1" parent="1" target="IoMN5XkX6HUeP3w48aP1-30">
          <mxGeometry width="50" height="50" relative="1" as="geometry">
            <mxPoint x="170" y="140" as="sourcePoint" />
            <mxPoint x="310" y="200" as="targetPoint" />
          </mxGeometry>
        </mxCell>
        <mxCell id="IoMN5XkX6HUeP3w48aP1-33" value="" style="endArrow=none;html=1;rounded=0;entryX=0;entryY=0.5;entryDx=0;entryDy=0;" edge="1" parent="1" target="IoMN5XkX6HUeP3w48aP1-32">
          <mxGeometry width="50" height="50" relative="1" as="geometry">
            <mxPoint x="170" y="140" as="sourcePoint" />
            <mxPoint x="310" y="200" as="targetPoint" />
          </mxGeometry>
        </mxCell>
        <mxCell id="IoMN5XkX6HUeP3w48aP1-43" value="Knihovník" style="shape=umlActor;verticalLabelPosition=bottom;verticalAlign=top;html=1;outlineConnect=0;" vertex="1" parent="1">
          <mxGeometry x="870" y="200" width="30" height="60" as="geometry" />
        </mxCell>
        <mxCell id="IoMN5XkX6HUeP3w48aP1-45" value="" style="endArrow=none;html=1;rounded=0;exitX=1;exitY=0.5;exitDx=0;exitDy=0;" edge="1" parent="1" source="IoMN5XkX6HUeP3w48aP1-44" target="IoMN5XkX6HUeP3w48aP1-43">
          <mxGeometry width="50" height="50" relative="1" as="geometry">
            <mxPoint x="480" y="330" as="sourcePoint" />
            <mxPoint x="530" y="280" as="targetPoint" />
          </mxGeometry>
        </mxCell>
        <mxCell id="IoMN5XkX6HUeP3w48aP1-49" value="" style="endArrow=none;html=1;rounded=0;exitX=1;exitY=0.5;exitDx=0;exitDy=0;" edge="1" parent="1" source="IoMN5XkX6HUeP3w48aP1-48" target="IoMN5XkX6HUeP3w48aP1-43">
          <mxGeometry width="50" height="50" relative="1" as="geometry">
            <mxPoint x="480" y="330" as="sourcePoint" />
            <mxPoint x="870" y="300" as="targetPoint" />
          </mxGeometry>
        </mxCell>
        <mxCell id="IoMN5XkX6HUeP3w48aP1-51" value="" style="endArrow=none;html=1;rounded=0;exitX=1;exitY=0.5;exitDx=0;exitDy=0;" edge="1" parent="1" source="IoMN5XkX6HUeP3w48aP1-46" target="IoMN5XkX6HUeP3w48aP1-43">
          <mxGeometry width="50" height="50" relative="1" as="geometry">
            <mxPoint x="480" y="330" as="sourcePoint" />
            <mxPoint x="870" y="300" as="targetPoint" />
          </mxGeometry>
        </mxCell>
        <mxCell id="IoMN5XkX6HUeP3w48aP1-59" value="" style="endArrow=none;html=1;rounded=0;exitX=1;exitY=0.5;exitDx=0;exitDy=0;" edge="1" parent="1" source="IoMN5XkX6HUeP3w48aP1-23" target="IoMN5XkX6HUeP3w48aP1-43">
          <mxGeometry width="50" height="50" relative="1" as="geometry">
            <mxPoint x="480" y="270" as="sourcePoint" />
            <mxPoint x="870" y="240" as="targetPoint" />
          </mxGeometry>
        </mxCell>
        <mxCell id="IoMN5XkX6HUeP3w48aP1-60" value="" style="endArrow=none;html=1;rounded=0;exitX=1;exitY=1;exitDx=0;exitDy=0;" edge="1" parent="1" source="IoMN5XkX6HUeP3w48aP1-4">
          <mxGeometry width="50" height="50" relative="1" as="geometry">
            <mxPoint x="480" y="210" as="sourcePoint" />
            <mxPoint x="860" y="220" as="targetPoint" />
            <Array as="points">
              <mxPoint x="490" y="160" />
            </Array>
          </mxGeometry>
        </mxCell>
      </root>
    </mxGraphModel>
  </diagram>
</mxfile>
